<svg xmlns="http://www.w3.org/2000/svg" xmlns:xlink="http://www.w3.org/1999/xlink" version="1.1" x="0px" y="0px" viewBox="0 0 38.7 44.25" style="enable-background:new 0 0 38.7 35.4;" xml:space="preserve"><title>Asset 7</title><g><g><path d="M23.5,24c-0.8,0-1.5,0.7-1.5,1.5v6.9H3V3h19v6.9c0,0.8,0.7,1.5,1.5,1.5S25,10.7,25,9.9V1.5C25,0.7,24.3,0,23.5,0    c0,0,0,0,0,0h-22C0.7,0,0,0.7,0,1.5v32.4c0,0.8,0.7,1.5,1.5,1.5h22c0.8,0,1.5-0.7,1.5-1.5v-8.4C25,24.6,24.3,24,23.5,24    C23.5,24,23.5,24,23.5,24z"/><path d="M38.7,18.5c0-0.1,0-0.2,0-0.3c0-0.1,0-0.1,0-0.2c0,0,0-0.1,0-0.2l0,0c0-0.1-0.1-0.1-0.1-0.2l-0.1-0.1v-0.1l-8.1-8.2    c-0.6-0.6-1.5-0.6-2.1,0c-0.6,0.6-0.6,1.5,0,2.1c0,0,0,0,0,0l5.4,5.6H12.5c-0.8,0-1.5,0.7-1.5,1.5s0.7,1.5,1.5,1.5h21.1l-5.4,5.6    c-0.6,0.6-0.6,1.5,0,2.1c0.3,0.3,0.7,0.4,1,0.4c0.4,0,0.8-0.2,1.1-0.5l7.9-8.1c0,0,0-0.1,0.1-0.1v-0.1c0.1-0.1,0.1-0.2,0.2-0.3    l0,0c0,0,0,0,0-0.1c0-0.1,0.1-0.2,0.1-0.3L38.7,18.5z"/></g></g></svg>